<svg width="32" height="32" viewBox="0 0 32 32" fill="none" xmlns="http://www.w3.org/2000/svg">
<path d="M29.2933 24.44C29.2933 24.92 29.1866 25.4134 28.96 25.8934C28.7333 26.3734 28.44 26.8267 28.0533 27.2534C27.4 27.9734 26.68 28.4934 25.8666 28.8267C25.0666 29.16 24.2 29.3334 23.2666 29.3334C21.9066 29.3334 20.4533 29.0134 18.92 28.36C17.3866 27.7067 15.8533 26.8267 14.3333 25.72C12.8 24.6 11.3466 23.36 9.95996 21.9867C8.58663 20.6 7.34663 19.1467 6.23996 17.6267C5.14663 16.1067 4.26663 14.5867 3.62663 13.08C2.98663 11.56 2.66663 10.1067 2.66663 8.72002C2.66663 7.81335 2.82663 6.94669 3.14663 6.14669C3.46663 5.33335 3.97329 4.58669 4.67996 3.92002C5.53329 3.08002 6.46663 2.66669 7.45329 2.66669C7.82663 2.66669 8.19996 2.74669 8.53329 2.90669C8.87996 3.06669 9.18663 3.30669 9.42663 3.65335L12.52 8.01335C12.76 8.34669 12.9333 8.65335 13.0533 8.94669C13.1733 9.22669 13.24 9.50669 13.24 9.76002C13.24 10.08 13.1466 10.4 12.96 10.7067C12.7866 11.0134 12.5333 11.3334 12.2133 11.6534L11.2 12.7067C11.0533 12.8534 10.9866 13.0267 10.9866 13.24C10.9866 13.3467 11 13.44 11.0266 13.5467C11.0666 13.6534 11.1066 13.7334 11.1333 13.8134C11.3733 14.2534 11.7866 14.8267 12.3733 15.52C12.9733 16.2134 13.6133 16.92 14.3066 17.6267C15.0266 18.3334 15.72 18.9867 16.4266 19.5867C17.12 20.1734 17.6933 20.5734 18.1466 20.8134C18.2133 20.84 18.2933 20.88 18.3866 20.92C18.4933 20.96 18.6 20.9734 18.72 20.9734C18.9466 20.9734 19.12 20.8934 19.2666 20.7467L20.28 19.7467C20.6133 19.4134 20.9333 19.16 21.24 19C21.5466 18.8134 21.8533 18.72 22.1866 18.72C22.44 18.72 22.7066 18.7734 23 18.8934C23.2933 19.0134 23.6 19.1867 23.9333 19.4134L28.3466 22.5467C28.6933 22.7867 28.9333 23.0667 29.08 23.4C29.2133 23.7334 29.2933 24.0667 29.2933 24.44Z" stroke="white" stroke-width="1.5" stroke-miterlimit="10"/>
</svg>
